<svg xmlns="http://www.w3.org/2000/svg" xmlns:xlink="http://www.w3.org/1999/xlink" width="24.76" height="32.179" viewBox="0 0 24.76 32.179">
  <defs>
    <style>
      .cls-1 {
        fill: url(#linear-gradient);
      }

      .cls-2 {
        fill: url(#linear-gradient-2);
      }

      .cls-3 {
        fill: url(#linear-gradient-3);
      }
    </style>
    <linearGradient id="linear-gradient" x1="1.073" y1="-0.189" x2="0.251" y2="0.885" gradientUnits="objectBoundingBox">
      <stop offset="0" stop-color="#fec730"/>
      <stop offset="1" stop-color="#fd8913"/>
    </linearGradient>
    <linearGradient id="linear-gradient-2" x1="0.983" y1="0.576" x2="-0.067" y2="0.401" gradientUnits="objectBoundingBox">
      <stop offset="0" stop-color="#e53613"/>
      <stop offset="1" stop-color="#f2542c" stop-opacity="0"/>
    </linearGradient>
    <linearGradient id="linear-gradient-3" x1="0.825" y1="0.267" x2="-0.395" y2="1.078" xlink:href="#linear-gradient"/>
  </defs>
  <g id="组_8527" data-name="组 8527" transform="translate(0)">
    <path id="路径_4353" data-name="路径 4353" class="cls-1" d="M297.108,81.768s-3.463,7.4-3.463,14h-5.251c.8-2.569-.327-4-2.134-4.562-2.339-.727-4.741.915-5.853,3.57-.182.44-.244.575-.4.992H275.4c-3.623-9.862-.808-14.094,2.29-16.1.143-.091.291-.182.434-.262V79.4a15.276,15.276,0,0,1,2.968-1.265,9.052,9.052,0,0,1,1.446-.364v-.006h.006c2.156.619,13.716,4.083,13.716,4.083Z" transform="translate(-273.692 -63.593)"/>
    <path id="路径_4354" data-name="路径 4354" class="cls-2" d="M289.8,87.719c-6.227,3.321-12.893-4.09-13.04-8.311V79.4a15.313,15.313,0,0,1,2.968-1.265,9.1,9.1,0,0,1,1.446-.364C279.745,80.906,284.469,89.8,289.8,87.719Z" transform="translate(-272.326 -63.591)"/>
    <path id="减去_1" data-name="减去 1" class="cls-3" d="M7.256,24.441c-1.967,0-3.979-1.374-5.52-3.769C.23,18.331-.393,15.6.254,14.18A7.4,7.4,0,0,1,6.63,9.468l.021,0,.023,0V9.458c.264-.043.5-.085.7-.125a3.886,3.886,0,0,0,1.88-.838,4.645,4.645,0,0,0,1.4-3.344A2.746,2.746,0,0,0,9.84,3.175,2.9,2.9,0,0,0,4.87,5.18a2.466,2.466,0,0,0,.2,1,.948.948,0,0,1-.029,1.157.638.638,0,0,1-.455.2.687.687,0,0,1-.57-.3,4.255,4.255,0,0,1-.471-4.252A5.151,5.151,0,0,1,7.439.069,8.143,8.143,0,0,1,8.489,0c3.861,0,6.9,2.807,7.553,6.985C16.785,11.692,14,18.195,13.972,18.26c-1.735,3.62-3.715,5.673-5.884,6.1H8.076A4.316,4.316,0,0,1,7.256,24.441ZM8.7,10.979a.969.969,0,0,0-.69.285.978.978,0,1,0,1.571,1.118.951.951,0,0,0,.1-.423A.981.981,0,0,0,8.7,10.979Z" transform="translate(8.592 0)"/>
  </g>
</svg>
